<svg xmlns="http://www.w3.org/2000/svg" viewBox="0 0 600.3 100"><path fill="#1F3A5F" fill-rule="evenodd" d="M40.66 11.11 L43.61 2.43 L56.39 2.43 L59.34 11.11 L70.90 15.89 L79.12 11.84 L88.16 20.88 L84.11 29.10 L88.89 40.66 L97.57 43.61 L97.57 56.39 L88.89 59.34 L84.11 70.90 L88.16 79.12 L79.12 88.16 L70.90 84.11 L59.34 88.89 L56.39 97.57 L43.61 97.57 L40.66 88.89 L29.10 84.11 L20.88 88.16 L11.84 79.12 L15.89 70.90 L11.11 59.34 L2.43 56.39 L2.43 43.61 L11.11 40.66 L15.89 29.10 L11.84 20.88 L20.88 11.84 L29.10 15.89 Z M37 22 L63 22 L64.5 38 C69 48 66 60 50 84 C34 60 31 48 35.5 38 Z M48.9 58 L51.1 58 L51.1 78 L48.9 78 Z M50 46.5 a4.5 4.5 0 1 0 0.001 0 Z M35.5 31 L64.5 31 L64.7 34 L35.3 34 Z"/><path fill="#3A3D42" transform="translate(122 30.00)" d="M4.739791273110154 40.0V0.0H22.90246817998823Q29.450261682821836 0.0 34.415295283515526 2.4802917221516836Q39.38032888420922 4.960583444303367 42.16851134991174 9.434966399306308Q44.95669381561426 13.90934935430925 44.95669381561426 20.0Q44.95669381561426 26.067987984268065 42.16851134991174 30.55370226998235Q39.38032888420922 35.03941655569663 34.415295283515526 37.519708277848316Q29.450261682821836 40.0 22.90246817998823 40.0ZM14.018921680963736 32.41653092192871H22.46896039144034Q26.463949707348796 32.41653092192871 29.399851351769843 30.899814189712302Q32.33575299619089 29.383097457495897 33.966755442693014 26.58511659595553Q35.59775788919513 23.787135734415163 35.59775788919513 20.0Q35.59775788919513 16.15572140844198 33.966755442693014 13.386311975473044Q32.33575299619089 10.616902542504107 29.399851351769843 9.100185810287702Q26.463949707348796 7.583469078071296 22.46896039144034 7.583469078071296H14.018921680963736ZM73.74396312698067 40.67292434424453Q69.02091067686558 40.67292434424453 65.0084733620307 39.130067201387384Q60.99603604719581 37.58721005853024 58.0536651079248 34.79311882567898Q55.1112941686538 31.999027592827723 53.47730017651977 28.231274990811414Q51.84330618438574 24.463522388795102 51.84330618438574 19.989316173900733Q51.84330618438574 15.515109959006367 53.477375218445005 11.762897467679899Q55.11144425250428 8.010684976353431 58.058125788779364 5.2067621286566705Q61.00480732505444 2.4028392809599097 65.00372371955669 0.8649574683576908Q69.00264011405892 -0.6729243442445281 73.72513084141092 -0.6729243442445281Q78.46701557709578 -0.6729243442445281 82.44632947260845 0.8588250845551109Q86.42564336812114 2.39057451335475 89.36499030135926 5.183389646994005Q92.30433723459737 7.97620478063326 93.93840626865665 11.74031631989453Q95.57247530271593 15.5044278591558 95.57247530271593 19.99276419347275Q95.57247530271593 24.4811005277897 93.93848131058189 28.257304158168797Q92.30448731844785 32.033507788547894 89.3650653432845 34.82146663759657Q86.42564336812114 37.60942548664525 82.44632947260845 39.14117491544489Q78.46701557709578 40.67292434424453 73.74396312698067 40.67292434424453ZM73.72411609537706 32.82737604905392Q76.4038896286891 32.82737604905392 78.67289876665552 31.895165044999693Q80.94190790462196 30.96295404094547 82.63340788684381 29.25137265702781Q84.32490786906567 27.539791273110154 85.26922362268124 25.189516560195813Q86.21353937629681 22.839241847281475 86.21353937629681 19.989590884310893Q86.21353937629681 17.139939921340314 85.27309780197564 14.8030354096254Q84.33265622765448 12.466130897910485 82.63950613202945 10.752638458805315Q80.94635603640444 9.039146019700144 78.67613757858062 8.105884985323117Q76.4059191207568 7.17262395094609 73.72614558744476 7.17262395094609Q71.04637205413272 7.17262395094609 68.76713221306663 8.107003293479726Q66.48789237200054 9.041382636013363 64.7888018681241 10.756910395963557Q63.08971136424766 12.47243815591375 62.14597673752626 14.81204897336765Q61.20224211080486 17.15165979082155 61.20224211080486 19.988619836880535Q61.20224211080486 22.82557988293952 62.1443877821723 25.17585459585386Q63.08653345353974 27.5261293087682 64.78275760658158 29.249677023155584Q66.47898175962342 30.97322473754297 68.76166216084422 31.900300393298444Q71.04434256206503 32.82737604905392 73.72411609537706 32.82737604905392ZM124.1369483757084 40.67292434424453Q119.47486915858909 40.67292434424453 115.5098355578954 39.158638629958816Q111.5448019572017 37.644352915673096 108.63100244650212 34.86159301353318Q105.71720293580255 32.078833111393266 104.09454027437985 28.301981976402093Q102.47187761295717 24.52513084141092 102.47187761295717 20.0Q102.47187761295717 15.474869158589083 104.09454027437985 11.698018023597909Q105.71720293580255 7.921166888606734 108.6482425443622 5.138406986466816Q111.57928215292186 2.355647084326897 115.54431575361556 0.8413613700411844Q119.50934935430925 -0.6729243442445281 124.17142857142858 -0.6729243442445281Q129.36753894273946 -0.6729243442445281 133.582834226255 1.1256170449970568Q137.79812950977052 2.9241584342386417 140.63163729831842 6.39611037131089L134.70336626304544 11.89281843238054Q132.6560961258555 9.560806416648603 130.1339568300765 8.366715183797346Q127.61181753429749 7.17262395094609 124.61578148710167 7.17262395094609Q121.81189185841257 7.17262395094609 119.47696262116379 8.09969960670156Q117.14203338391502 9.02677526245703 115.43073921526121 10.737583227524697Q113.71944504660742 12.448391192592364 112.77512929299186 14.805496887677682Q111.8308135393763 17.162602582763 111.8308135393763 20.0Q111.8308135393763 22.837397417237 112.77512929299186 25.19450311232232Q113.71944504660742 27.55160880740764 115.43073921526121 29.262416772475305Q117.14203338391502 30.97322473754297 119.47696262116379 31.900300393298444Q121.81189185841257 32.82737604905392 124.61578148710167 32.82737604905392Q127.61181753429749 32.82737604905392 130.1339568300765 31.633284816202657Q132.6560961258555 30.439193583351397 134.70336626304544 28.072701371899292L140.63163729831842 33.56940943296894Q137.79812950977052 37.0186987086185 133.582834226255 38.84581152643152Q129.36753894273946 40.67292434424453 124.1369483757084 40.67292434424453ZM164.91121984453872 40.0V0.0H195.11533244557307V7.447493109535166H174.1903502523923V40.0ZM173.4829457124276 25.441510018271345V17.99401690873618H192.7035149112756V25.441510018271345ZM223.22967741269497 40.67292434424453Q218.50662496257988 40.67292434424453 214.49418764774498 39.130067201387384Q210.4817503329101 37.58721005853024 207.53937939363908 34.79311882567898Q204.59700845436808 31.999027592827723 202.96301446223407 28.231274990811414Q201.32902047010003 24.463522388795102 201.32902047010003 19.989316173900733Q201.32902047010003 15.515109959006367 202.9630895041593 11.762897467679899Q204.59715853821857 8.010684976353431 207.54384007449366 5.2067621286566705Q210.49052161076875 2.4028392809599097 214.48943800527098 0.8649574683576908Q218.48835439977321 -0.6729243442445281 223.2108451271252 -0.6729243442445281Q227.9527298628101 -0.6729243442445281 231.93204375832278 0.8588250845551109Q235.91135765383544 2.39057451335475 238.85070458707355 5.183389646994005Q241.79005152031166 7.97620478063326 243.42412055437094 11.74031631989453Q245.05818958843022 15.5044278591558 245.05818958843022 19.99276419347275Q245.05818958843022 24.4811005277897 243.4241955962962 28.257304158168797Q241.79020160416215 32.033507788547894 238.8507796289988 34.82146663759657Q235.91135765383544 37.60942548664525 231.93204375832278 39.14117491544489Q227.9527298628101 40.67292434424453 223.22967741269497 40.67292434424453ZM223.20983038109136 32.82737604905392Q225.8896039144034 32.82737604905392 228.15861305236984 31.895165044999693Q230.42762219033625 30.96295404094547 232.1191221725581 29.25137265702781Q233.81062215477996 27.539791273110154 234.75493790839553 25.189516560195813Q235.6992536620111 22.839241847281475 235.6992536620111 19.989590884310893Q235.6992536620111 17.139939921340314 234.75881208768993 14.8030354096254Q233.8183705133688 12.466130897910485 232.12522041774378 10.752638458805315Q230.43207032211873 9.039146019700144 228.16185186429493 8.105884985323117Q225.8916334064711 7.17262395094609 223.21185987315906 7.17262395094609Q220.532086339847 7.17262395094609 218.2528464987809 8.107003293479726Q215.97360665771484 9.041382636013363 214.2745161538384 10.756910395963557Q212.57542564996194 12.47243815591375 211.63169102324053 14.81204897336765Q210.68795639651916 17.15165979082155 210.68795639651916 19.988619836880535Q210.68795639651916 22.82557988293952 211.63010206788658 25.17585459585386Q212.57224773925404 27.5261293087682 214.26847189229588 29.249677023155584Q215.96469604533772 30.97322473754297 218.24737644655852 31.900300393298444Q220.53005684777932 32.82737604905392 223.20983038109136 32.82737604905392ZM272.21772630144625 40.67292434424453Q263.70733021584965 40.67292434424453 258.9092750301942 35.94285714285714Q254.11121984453874 31.212789941469758 254.11121984453874 22.379282152921867V0.0H263.3903502523923V22.082722740082378Q263.3903502523923 27.75751757455638 265.73709702393853 30.29244681180515Q268.0838437954848 32.82737604905392 272.2975318200118 32.82737604905392Q276.5338825059614 32.82737604905392 278.86929794679634 30.29244681180515Q281.2047133876312 27.75751757455638 281.2047133876312 22.082722740082378V0.0H290.32423275835373V22.379282152921867Q290.32423275835373 31.212789941469758 285.5261775726983 35.94285714285714Q280.72812238704284 40.67292434424453 272.21772630144625 40.67292434424453ZM301.8826484159673 40.0V0.0H309.52034312966464L333.1388188659379 28.825282586479204H329.4441299433279V0.0H338.58728438264535V40.0H330.949589668948L307.3311139326748 11.1747174135208H311.0258028552848V40.0ZM350.45407698739587 40.0V0.0H368.6167538942739Q375.1645473971076 0.0 380.12958099780127 2.4802917221516836Q385.09461459849496 4.960583444303367 387.88279706419746 9.434966399306308Q390.67097952989997 13.90934935430925 390.67097952989997 20.0Q390.67097952989997 26.067987984268065 387.88279706419746 30.55370226998235Q385.09461459849496 35.03941655569663 380.12958099780127 37.519708277848316Q375.1645473971076 40.0 368.6167538942739 40.0ZM359.73320739524945 32.41653092192871H368.1832461057261Q372.1782354216345 32.41653092192871 375.11413706605555 30.899814189712302Q378.0500387104766 29.383097457495897 379.6810411569787 26.58511659595553Q381.31204360348084 23.787135734415163 381.31204360348084 20.0Q381.31204360348084 16.15572140844198 379.6810411569787 13.386311975473044Q378.0500387104766 10.616902542504107 375.11413706605555 9.100185810287702Q372.1782354216345 7.583469078071296 368.1832461057261 7.583469078071296H359.73320739524945ZM400.05407698739583 40.0V0.0H417.11922207426215Q425.4916973769781 0.0 430.11929639837723 3.8675017806819234Q434.74689541977637 7.735003561363847 434.74689541977637 14.4995509584714Q434.74689541977637 18.95572140844198 432.63900467622557 22.17789786627853Q430.5311139326747 25.40007432411508 426.63504072342135 27.119782601963397Q422.738967514168 28.839490879811713 417.345848688489 28.839490879811713H405.1951379641386L409.3332073952494 24.813762348642037V40.0ZM425.51406274194045 40.0 415.478610139048 25.4630516242916H425.38533956830076L435.5005976897587 40.0ZM409.3332073952494 25.816753894273948 405.1951379641386 21.46095816171689H416.86798798426804Q421.11615620451516 21.46095816171689 423.2520578489362 19.617651977331146Q425.38795949335724 17.774345792945404 425.38795949335724 14.4995509584714Q425.38795949335724 11.19027592827723 423.2520578489362 9.364209841751574Q421.11615620451516 7.538143755225917 416.86798798426804 7.538143755225917H405.1951379641386L409.3332073952494 3.1478678269486906ZM454.3949893159084 40.0V23.6639497073488L456.5152581214579 29.272998668359605L438.8955126815521 0.0H448.745099253662L462.203140193862 22.443231860270664H456.5724009786008L470.1102474373664 0.0H479.1735963581183L461.5991762410578 29.272998668359605L463.674119723762 23.6639497073488V40.0Z"/></svg>