<svg xmlns="http://www.w3.org/2000/svg" viewBox="0 0 100 100"><path fill="#1F3A5F" fill-rule="evenodd" d="M40.66 11.11 L43.61 2.43 L56.39 2.43 L59.34 11.11 L70.90 15.89 L79.12 11.84 L88.16 20.88 L84.11 29.10 L88.89 40.66 L97.57 43.61 L97.57 56.39 L88.89 59.34 L84.11 70.90 L88.16 79.12 L79.12 88.16 L70.90 84.11 L59.34 88.89 L56.39 97.57 L43.61 97.57 L40.66 88.89 L29.10 84.11 L20.88 88.16 L11.84 79.12 L15.89 70.90 L11.11 59.34 L2.43 56.39 L2.43 43.61 L11.11 40.66 L15.89 29.10 L11.84 20.88 L20.88 11.84 L29.10 15.89 Z M37 22 L63 22 L64.5 38 C69 48 66 60 50 84 C34 60 31 48 35.5 38 Z M48.9 58 L51.1 58 L51.1 78 L48.9 78 Z M50 46.5 a4.5 4.5 0 1 0 0.001 0 Z M35.5 31 L64.5 31 L64.7 34 L35.3 34 Z"/></svg>